<?xml version="1.0" encoding="UTF-8"?>
<!DOCTYPE svg PUBLIC "-//W3C//DTD SVG 1.1//EN" "http://www.w3.org/Graphics/SVG/1.1/DTD/svg11.dtd">
<!-- Creator: CorelDRAW X7 -->
<svg xmlns="http://www.w3.org/2000/svg" xml:space="preserve" width="33.8666mm" height="33.8666mm" version="1.1" style="shape-rendering:geometricPrecision; text-rendering:geometricPrecision; image-rendering:optimizeQuality; fill-rule:evenodd; clip-rule:evenodd"
viewBox="0 0 3387 3387"
 xmlns:xlink="http://www.w3.org/1999/xlink">
 <defs>
  <style type="text/css">
   <![CDATA[
    .fil0 {fill:white}
   ]]>
  </style>
 </defs>
 <g id="Capa_x0020_1">
  <metadata id="CorelCorpID_0Corel-Layer"/>
  <path class="fil0" d="M1890 1276c4,-23 7,-47 8,-70 -96,-25 -159,-118 -144,-218 16,-107 116,-181 223,-165 107,16 181,115 165,222 -12,83 -74,146 -151,163 47,98 65,211 45,327 -33,186 -158,334 -320,403l-3 1c-162,70 -284,223 -316,409 -13,75 -10,149 6,218 -121,-120 -184,-295 -152,-477 32,-186 157,-333 318,-402l6 -3c161,-69 282,-222 315,-408zm884 578c88,-597 -324,-1152 -920,-1241 -597,-89 -1152,323 -1241,920 -89,596 323,1152 920,1241 596,88 1152,-324 1241,-920z"/>
 </g>
</svg>
